PathFileType	4	(X/Y/Z)	/Users/itak/Documents/Research/Walk-IL/dataset/trc/00275_00010.trc
DataRate	CameraRate	NumFrames	NumMarkers	Units	OrigDataRate	OrigDataStartFrame	OrigNumFrames
100.000000	100.000000	4	53	mm	100.000000	0	522
Frame#	Time	RPSI			LPSI			L3			STRN			T10			C7			CLAV			RBAK			LBAK			LSHO			LUPA			LAEL			LAOL			LWTS			LWPS			LFRA			LIFD			LHPS			LHTS			RSHO			RUPA			RAEL			RAOL			RWTS			RWPS			RFRA			RIFD			RHTS			RHPS			RBHD			LFHD			RFHD			LBHD			LHIP			RHIP			RASI			LASI			LKNE			LTHI			LANK			LTIP			LTOE			LMT1			LMT5			LHEE			RKNE			RTHI			RANK			RTIP			RTOE			RMT1			RMT5			RHEE			
		X1	Y1	Z1	X2	Y2	Z2	X3	Y3	Z3	X4	Y4	Z4	X5	Y5	Z5	X6	Y6	Z6	X7	Y7	Z7	X8	Y8	Z8	X9	Y9	Z9	X10	Y10	Z10	X11	Y11	Z11	X12	Y12	Z12	X13	Y13	Z13	X14	Y14	Z14	X15	Y15	Z15	X16	Y16	Z16	X17	Y17	Z17	X18	Y18	Z18	X19	Y19	Z19	X20	Y20	Z20	X21	Y21	Z21	X22	Y22	Z22	X23	Y23	Z23	X24	Y24	Z24	X25	Y25	Z25	X26	Y26	Z26	X27	Y27	Z27	X28	Y28	Z28	X29	Y29	Z29	X30	Y30	Z30	X31	Y31	Z31	X32	Y32	Z32	X33	Y33	Z33	X34	Y34	Z34	X35	Y35	Z35	X36	Y36	Z36	X37	Y37	Z37	X38	Y38	Z38	X39	Y39	Z39	X40	Y40	Z40	X41	Y41	Z41	X42	Y42	Z42	X43	Y43	Z43	X44	Y44	Z44	X45	Y45	Z45	X46	Y46	Z46	X47	Y47	Z47	X48	Y48	Z48	X49	Y49	Z49	X50	Y50	Z50	X51	Y51	Z51	X52	Y52	Z52	X53	Y53	Z53	

1	0	844.1727294921875	989.80322265625	71.85129547119141	855.9776611328125	983.0252075195312	-101.1675567626953	866.3672485351562	1061.292846679688	-17.92510795593262	1124.536987304688	1239.060180664062	-13.87110996246338	854.8592529296875	1180.47412109375	-21.39768600463867	905.870361328125	1423.079467773438	-35.66294479370117	1063.189697265625	1340.514526367188	-19.75506591796875	849.1072387695312	1287.061767578125	38.24377822875977	895.4508666992188	1388.7294921875	-139.9903259277344	988.8474731445312	1394.932983398438	-186.0970153808594	963.854736328125	1278.009765625	-263.2193908691406	968.3956909179688	1074.17919921875	-281.2122192382812	900.988525390625	1062.386474609375	-227.7402954101562	1025.008544921875	844.1495971679688	-227.2956390380859	999.04833984375	838.09716796875	-294.1117248535156	977.0303344726562	969.3736572265625	-289.6615600585938	1006.742126464844	657.7149658203125	-232.9793853759766	992.855712890625	750.054931640625	-293.8873596191406	1040.129272460938	744.6278686523438	-248.3065795898438	966.4093627929688	1398.5390625	127.4855041503906	956.5341796875	1339.003784179688	193.1015930175781	954.9297485351562	1073.314453125	245.9061584472656	919.2298583984375	1061.892456054688	156.1383209228516	1053.578857421875	849.4828491210938	191.2542572021484	1016.002502441406	845.9330444335938	267.1509094238281	981.462158203125	1006.493774414062	257.576171875	1061.462646484375	664.9728393554688	191.5822143554688	1084.9873046875	734.694091796875	207.6503143310547	1040.204711914062	733.7974853515625	261.7748107910156	906.1129150390625	1569.578857421875	34.94776916503906	1080.223876953125	1639.939697265625	-64.06352233886719	1070.150390625	1635.70654296875	28.11393356323242	926.2814331054688	1566.897827148438	-109.4603652954102	937.8973999023438	937.4452514648438	-191.3270416259766	940.5201416015625	942.826904296875	180.1643981933594	1062.412353515625	952.9757080078125	114.7802505493164	1065.7666015625	951.4050903320312	-138.7126922607422	1025.140502929688	476.2642517089844	-170.4007720947266	1008.603515625	617.48388671875	-189.8636322021484	905.5913696289062	36.5837516784668	-149.7582855224609	960.3897094726562	252.5890808105469	-170.8008270263672	1110.91845703125	29.00643920898438	-82.56440734863281	1038.874633789062	22.02646064758301	-46.7538948059082	1030.749633789062	35.41917419433594	-157.9588012695312	858.3037719726562	30.65531730651855	-92.92223358154297	1011.712890625	471.5694580078125	145.9371948242188	1014.96875	735.2523193359375	181.6434020996094	904.9942626953125	35.3602180480957	114.7339324951172	1013.138977050781	344.6006774902344	134.5736694335938	1102.427124023438	34.3754768371582	68.86576080322266	1046.310668945312	32.25128555297852	27.46406173706055	1008.196044921875	27.94585800170898	138.7061614990234	852.6663818359375	34.30831527709961	61.2216682434082	
2	0.01	844.041748046875	989.940185546875	71.63682556152344	855.6373901367188	983.0826416015625	-101.4074783325195	866.24658203125	1061.374877929688	-18.06404685974121	1124.436157226562	1239.111694335938	-14.15533924102783	854.8141479492188	1180.52978515625	-21.4701976776123	905.7279052734375	1423.143432617188	-35.73410415649414	1063.057495117188	1340.540771484375	-19.97866821289062	849.0296630859375	1287.117919921875	38.21949005126953	895.2462158203125	1388.802978515625	-140.0680694580078	988.61328125	1395.008544921875	-186.2566986083984	963.494384765625	1278.077392578125	-263.3466491699219	967.9880981445312	1074.189086914062	-281.1366271972656	900.53759765625	1062.5107421875	-227.6213989257812	1025.167236328125	844.420166015625	-226.7610473632812	999.212158203125	838.1505126953125	-293.6304626464844	976.872802734375	969.3968505859375	-289.4594421386719	1007.488464355469	657.9154052734375	-232.1512451171875	993.3603515625	750.0791625976562	-293.1806945800781	1040.610229492188	744.8349609375	-247.5421905517578	966.3974609375	1398.57763671875	127.3289260864258	956.5731201171875	1339.021850585938	192.9410247802734	955.01611328125	1073.311767578125	245.6648101806641	919.470458984375	1061.804077148438	155.9174194335938	1053.736694335938	849.5033569335938	190.8915405273438	1016.231140136719	845.9453125	266.8285522460938	981.7308959960938	1006.502258300781	257.3428955078125	1061.703247070312	665.0149536132812	191.2047882080078	1085.172119140625	734.7249755859375	207.2306213378906	1040.42431640625	733.80224609375	261.3905944824219	906.2623291015625	1569.68115234375	34.87626266479492	1080.449462890625	1639.935791015625	-64.27312469482422	1070.391845703125	1635.683349609375	27.8980884552002	926.3298950195312	1567.029052734375	-109.5427398681641	936.7484130859375	937.5368041992188	-191.7953491210938	940.4428100585938	942.9047241210938	179.8895568847656	1062.3154296875	953.0586547851562	114.4982528686523	1065.496337890625	951.4578857421875	-138.8909454345703	1024.988403320312	476.3297424316406	-170.4806213378906	1008.387573242188	617.4892578125	-189.9960174560547	905.5863647460938	36.589111328125	-149.7397308349609	960.2940063476562	252.5768890380859	-170.8257751464844	1110.944580078125	28.97635078430176	-82.55107116699219	1038.883666992188	22.01680374145508	-46.73903274536133	1030.744384765625	35.42169189453125	-157.9470977783203	858.29443359375	30.6387996673584	-92.93027496337891	1011.656372070312	471.9947509765625	146.1278076171875	1014.909240722656	735.23583984375	181.3389129638672	904.9945678710938	35.36748123168945	114.7403945922852	1012.85107421875	344.6852111816406	134.46923828125	1102.429809570312	34.364013671875	68.85047912597656	1046.3134765625	32.24753570556641	27.46342658996582	1008.192993164062	27.95271873474121	138.7002868652344	852.6898803710938	34.322265625	61.22677612304688	
3	0.02	843.8675537109375	990.0892333984375	71.36374664306641	855.1184692382812	983.16259765625	-101.7491683959961	866.0978393554688	1061.463012695312	-18.24411582946777	1124.300659179688	1239.174926757812	-14.51849269866943	854.7597045898438	1180.59521484375	-21.56414794921875	905.5416870117188	1423.220825195312	-35.82613372802734	1062.888671875	1340.572143554688	-20.26362419128418	848.9322509765625	1287.192626953125	38.18574905395508	894.9915771484375	1388.893798828125	-140.174072265625	988.3108520507812	1395.10009765625	-186.4629669189453	963.0463256835938	1278.15234375	-263.5099792480469	967.5193481445312	1074.20947265625	-281.0366821289062	900.0068359375	1062.635131835938	-227.4755401611328	1025.420776367188	844.7734375	-226.0937194824219	999.4749755859375	838.2139282226562	-292.9960021972656	976.7008056640625	969.4200439453125	-289.1746826171875	1008.356079101562	658.05712890625	-231.1027069091797	994.0466918945312	750.1058349609375	-292.2609252929688	1041.270141601562	745.0969848632812	-246.5488433837891	966.3824462890625	1398.628784179688	127.1273651123047	956.6328735351562	1339.049194335938	192.7386016845703	955.1425170898438	1073.31396484375	245.3658905029297	919.1165771484375	1061.9912109375	155.8346405029297	1053.951416015625	849.53857421875	190.4305877685547	1016.537902832031	845.968505859375	266.421875	982.0835571289062	1006.516967773438	257.0528869628906	1061.981689453125	665.0650024414062	190.7048950195312	1085.4111328125	734.7706909179688	206.6874084472656	1040.722412109375	733.8165893554688	260.9038696289062	906.4619750976562	1569.811157226562	34.77933883666992	1080.716918945312	1639.9072265625	-64.51290130615234	1070.679443359375	1635.6318359375	27.64505767822266	926.3896484375	1567.198608398438	-109.6519622802734	935.2581787109375	937.6632080078125	-192.3875122070312	940.310302734375	943.0099487304688	179.5405731201172	1062.201538085938	953.1627197265625	114.1463394165039	1065.150146484375	951.540771484375	-139.0899505615234	1024.797729492188	476.4107055664062	-170.5929565429688	1008.123657226562	617.5025024414062	-190.1682891845703	905.58203125	36.59600448608398	-149.7184600830078	960.1796264648438	252.5565795898438	-170.8634796142578	1110.97216796875	28.9550895690918	-82.54737091064453	1038.892944335938	22.0015983581543	-46.72044372558594	1030.735717773438	35.42428970336914	-157.9337158203125	858.289306640625	30.62821388244629	-92.92718505859375	1011.543090820312	472.4184265136719	146.2530059814453	1014.825561523438	735.2291870117188	180.9962921142578	904.9937133789062	35.37567901611328	114.7444076538086	1012.500122070312	344.7930297851562	134.3170928955078	1102.433959960938	34.34857940673828	68.83147430419922	1046.316650390625	32.24197769165039	27.46257781982422	1008.188049316406	27.9613037109375	138.6915740966797	852.7186279296875	34.33634567260742	61.23035430908203	
4	0.03	843.6600952148438	990.2340087890625	71.04447174072266	854.445068359375	983.2590942382812	-102.1827774047852	865.9284057617188	1061.546264648438	-18.46034049987793	1124.132568359375	1239.246459960938	-14.94760513305664	854.6991577148438	1180.666015625	-21.67757034301758	905.318359375	1423.307006835938	-35.93629837036133	1062.688232421875	1340.607299804688	-20.60068702697754	848.8172607421875	1287.284301757812	38.14236831665039	894.6976928710938	1388.9970703125	-140.3070831298828	987.9492797851562	1395.202026367188	-186.7101745605469	962.5317993164062	1278.22607421875	-263.7031555175781	967.0269165039062	1074.238891601562	-280.9133605957031	899.4371337890625	1062.739624023438	-227.3091125488281	1025.789794921875	845.2075805664062	-225.3210144042969	999.8527221679688	838.2831420898438	-292.2212219238281	976.5349731445312	969.439208984375	-288.8052673339844	1009.275451660156	658.0706787109375	-229.8617095947266	994.9127197265625	750.1358032226562	-291.1533203125	1042.108154296875	745.4107666015625	-245.357421875	966.3646850585938	1398.691772460938	126.8869934082031	956.716064453125	1339.0859375	192.5023651123047	955.3177490234375	1073.32421875	245.0263519287109	918.3307495117188	1062.38427734375	155.8558349609375	1054.220825195312	849.592041015625	189.8884735107422	1016.922058105469	846.005615234375	265.9479675292969	982.5057373046875	1006.538879394531	256.7171325683594	1062.287353515625	665.1233520507812	190.0962982177734	1085.700317382812	734.83349609375	206.0373840332031	1041.098999023438	733.844482421875	260.3330383300781	906.7058715820312	1569.964599609375	34.65785598754883	1081.009399414062	1639.845458984375	-64.76433563232422	1070.99267578125	1635.544555664062	27.37575721740723	926.45849609375	1567.402587890625	-109.7872161865234	933.5829467773438	937.8148193359375	-193.0532531738281	940.1106567382812	943.1436767578125	179.1302642822266	1062.076293945312	953.283935546875	113.7398681640625	1064.741943359375	951.65576171875	-139.2966613769531	1024.574462890625	476.4986877441406	-170.7374114990234	1007.82763671875	617.5277099609375	-190.3732299804688	905.5786743164062	36.6037483215332	-149.6961059570312	960.0536499023438	252.5285797119141	-170.9162139892578	1110.998657226562	28.94636535644531	-82.55656433105469	1038.9013671875	21.98117637634277	-46.70028305053711	1030.722412109375	35.42630386352539	-157.9208526611328	858.2903442382812	30.62689018249512	-92.91078186035156	1011.360656738281	472.7912292480469	146.2751007080078	1014.711975097656	735.2400512695312	180.6455535888672	904.9915161132812	35.38338470458984	114.7437438964844	1012.111633300781	344.9210510253906	134.1170349121094	1102.43994140625	34.32979583740234	68.8101806640625	1046.320068359375	32.23476791381836	27.46123695373535	1008.181213378906	27.97087860107422	138.6798553466797	852.751708984375	34.34845352172852	61.23114013671875	
